# xmcd
#
# Track frame offsets:
#	150
#	18597
#	36233
#	51632
#	78686
#	94577
#	114782
#	130161
#	150679
#	171379
#	172658
#	196826
#	214656
#	231827
#	249696
#
# Disc length: 3536 seconds
#
# Revision: 0
# Processed by: cddbd v1.5.2PL0 Copyright (c) Steve Scherf et al.
# Submitted via: EasyCDDAExtractor 10.0.2.1
#
DISCID=c60dce0f
DTITLE=Angela Bofill - Something About You
DYEAR=1900
DGENRE=R&B
TTITLE0=Something About You
TTITLE1=Break It To Me Gently
TTITLE2=On And On
TTITLE3=Tropical Love
TTITLE4=You Should Know By Now
TTITLE5=Only Love
TTITLE6=Holding' Out For Love
TTITLE7=Stop Look Listen
TTITLE8=I Do Love You
TTITLE9=Three Blind Mice
TTITLE10=Time To Say Goodbye
TTITLE11=Never Wanna Be Without Your Love
TTITLE12=Esperando Al Amor
TTITLE13=Love Light
TTITLE14=Rhythm Of Your Mind
EXTD=
EXTT0=
EXTT1=
EXTT2=
EXTT3=
EXTT4=
EXTT5=
EXTT6=
EXTT7=
EXTT8=
EXTT9=
EXTT10=
EXTT11=
EXTT12=
EXTT13=
EXTT14=
PLAYORDER=
